<svg version="1.2" xmlns="http://www.w3.org/2000/svg" viewBox="0 0 1440 400" width="1440" height="400" preserveAspectRatio="none">
	<title>vector-bottom-right-white-svg</title>
	<style>
		.s0 { fill: #ffffff } 
	</style>
	<g id="swoop-2-bottom-left-white">
		<path id="Remplissage couleur unie 1" class="s0" d="m1440 0c0.1-0.1 0 90 0 400l-720.3-0.1c-396.1-0.1-721.4 0.3-719.7 0.1 1.7-0.2 19.2-3.1 36-5.5 16.8-2.5 41.3-6.1 54.5-8 13.2-2 49.2-7.8 80-13 30.8-5.2 79.4-13.7 108-18.9 28.6-5.2 72.7-13.6 98-18.6 25.3-5 59.9-12 77-15.6 17.1-3.6 54.2-11.7 82.5-18 28.3-6.4 63.9-14.5 79-18 15.1-3.6 50-12.1 77.5-19 27.5-6.9 67.5-17.2 89-23 21.5-5.8 50.3-13.7 64-17.5 13.8-3.9 36.5-10.4 50.5-14.6 14-4.1 42.8-12.8 64-19.3 21.2-6.6 54-17 73-23.3 19-6.3 45.5-15.3 59-20 13.5-4.7 35.3-12.4 48.5-17.2 13.2-4.8 37-13.8 53-20 16-6.3 39.1-15.5 51.5-20.5 12.4-5.1 32.2-13.4 44-18.4 11.8-5.1 34.8-15.3 51-22.6 16.2-7.4 45.3-21.3 64.5-31.1 19.3-9.7 35.4-17.8 35.5-17.9z"/>
	</g>
</svg>