<svg version="1.2" xmlns="http://www.w3.org/2000/svg" viewBox="0 0 1440 400" width="1440" height="400" preserveAspectRatio="none">
	<title>vector-top-left-white-svg</title>
	<style>
		.s0 { fill: #ffffff } 
	</style>
	<g id="swoop-2-bottom-left-white">
		<path id="Calque 1" class="s0" d="m0 0h1439.5l-9.5 5.2c-5.2 2.8-23.5 12-40.5 20.3-17 8.4-40 19.3-51 24.3-11 5-31.7 14.1-46 20.2-14.3 6.2-41.3 17.4-60 25-18.7 7.6-46.8 18.7-62.5 24.6-15.7 5.8-42.5 15.6-59.5 21.6-17 6-46.3 16.1-65 22.3-18.7 6.2-44.6 14.7-57.5 18.9-12.9 4.1-39.3 12.2-58.5 18-19.3 5.7-47.8 14.1-63.5 18.6-15.7 4.5-46.3 13-68 19-21.7 5.9-66.5 17.6-99.5 25.8-33 8.3-73.5 18.2-90 22.1-16.5 3.8-49.4 11.3-73 16.6-23.6 5.3-53.6 11.9-66.5 14.6-12.9 2.8-40.1 8.4-60.5 12.5-20.4 4.1-52.1 10.3-70.5 13.9-18.4 3.5-52.2 9.8-75 13.9-22.8 4.2-65.6 11.6-95 16.5-29.4 4.9-62.7 10.4-74 12.1-11.3 1.7-34.2 5-51 7.5-16.8 2.4-33.3 4.7-43 6v-199.8z"/>
	</g>
</svg>