<svg version="1.2" xmlns="http://www.w3.org/2000/svg" viewBox="0 0 1440 400" width="1440" height="400" preserveAspectRatio="none">
	<title>vector-top-left-white-2-svg</title>
	<style>
		.s0 { fill: #ffffff } 
	</style>
	<g id="swoop-2-bottom-left-white">
		<path id="Calque 1" class="s0" d="m1440 199.7v199.8c-9.7-1.3-26.2-3.6-43-6-16.8-2.5-39.7-5.8-51-7.5-11.3-1.7-44.6-7.2-74-12.1-29.4-4.9-72.2-12.3-95-16.5-22.8-4.1-56.6-10.4-75-13.9-18.4-3.6-50.1-9.8-70.5-13.9-20.4-4.1-47.6-9.7-60.5-12.5-12.9-2.7-42.9-9.3-66.5-14.6-23.6-5.3-56.5-12.8-73-16.6-16.5-3.9-57-13.8-90-22.1-33-8.2-77.8-19.9-99.5-25.8-21.7-6-52.3-14.5-68-19-15.7-4.5-44.2-12.9-63.5-18.6-19.2-5.8-45.6-13.9-58.5-18-12.9-4.2-38.8-12.7-57.5-18.9-18.7-6.2-48-16.3-65-22.3-17-6-43.8-15.8-59.5-21.6-15.7-5.9-43.8-17-62.5-24.6-18.7-7.6-45.7-18.8-60-25-14.3-6.1-35-15.2-46-20.2-11-5-34-15.9-51-24.3-17-8.3-35.3-17.5-40.5-20.3l-9.5-5.2h1439.5z"/>
	</g>
</svg>