<svg version="1.2" xmlns="http://www.w3.org/2000/svg" viewBox="0 0 1440 400" width="1440" height="400" preserveAspectRatio="none">
	<title>vector-top-left-white-2-svg</title>
	<style>
		.s0 { fill: #ffffff } 
	</style>
	<g id="swoop-2-bottom-left-white">
		<path id="Remplissage couleur unie 1" class="s0" d="m-0.5 0.2l1440.5-0.2v400l-2.8-0.5c-1.5-0.3-15.1-2.3-30.2-4.5-15.1-2.2-35.4-5.1-45-6.6-9.6-1.4-27.4-4.1-39.5-6-12.1-2-35.3-5.8-51.5-8.5-16.2-2.8-39.8-6.8-52.5-9-12.7-2.2-39.9-7.1-60.5-11-20.6-3.8-51.5-9.7-68.5-13-17-3.3-42.3-8.3-56-11-13.8-2.8-36.7-7.5-51-10.4-14.3-2.9-41.5-8.8-60.5-13-19-4.2-48.9-11-66.5-15.1-17.6-4.2-46-10.9-63-15-17-4.2-45.2-11.1-62.5-15.5-17.3-4.4-48.4-12.5-69-17.9-20.6-5.4-57.3-15.5-81.5-22.5-24.2-6.9-52.3-15.1-62.5-18.1-10.2-3.1-27.3-8.2-38-11.5-10.7-3.4-34.6-11-53-17-18.4-6.1-43.4-14.4-55.5-18.6-12.1-4.1-31.9-11-44-15.3-12.1-4.4-26.9-9.7-33-11.8-6.1-2.2-17.5-6.5-25.5-9.5-8-3.1-25.3-9.8-38.5-15-13.2-5.3-31.7-12.7-41-16.5-9.3-3.9-28.9-12.2-43.5-18.4-14.6-6.3-36.2-15.8-48-21.2-11.8-5.3-38.6-18.1-59.5-28.5z"/>
	</g>
</svg>