<svg version="1.2" xmlns="http://www.w3.org/2000/svg" viewBox="0 0 1440 400" width="1440" height="400" preserveAspectRatio="none">
	<title>vector-bottom-left-white-3-svg</title>
	<style>
		.s0 { fill: #ffffff } 
	</style>
	<g id="swoop-2-bottom-left-white">
		<path id="Calque 1" class="s0" d="m0.3 1c0.1 0 18.4 8.9 40.7 19.8 22.3 11 47 22.9 55 26.5 8 3.6 18.3 8.2 23 10.2 4.7 2 18.2 7.9 30 13 11.8 5.1 32.5 13.8 46 19.3 13.5 5.5 34.8 14.1 47.5 19 12.6 4.9 30.9 11.9 40.5 15.5 9.6 3.6 24.7 9.1 33.5 12.2 8.8 3.2 29.7 10.4 46.5 16.2 16.8 5.8 36.4 12.4 43.5 14.8 7.1 2.4 22.9 7.6 35 11.5 12.1 3.9 30.1 9.6 40 12.6 9.9 3 35.3 10.6 56.5 16.9 21.2 6.2 51.3 14.9 67 19.3 15.7 4.4 39.8 10.9 53.5 14.6 13.7 3.6 41 10.7 60.5 15.7 19.5 4.9 50.4 12.6 68.5 17 18.1 4.5 39.5 9.6 47.5 11.5 8 1.9 19.2 4.6 25 5.9 5.8 1.4 27.8 6.3 49 11 21.2 4.7 40.3 8.9 42.5 9.5 2.2 0.5 13.7 2.9 25.5 5.4 11.8 2.5 35 7.2 51.5 10.5 16.5 3.3 44 8.7 61 12 17 3.3 43.4 8.3 58.5 11.2 15.1 2.8 34.7 6.4 43.5 8 8.8 1.6 36.9 6.5 62.5 10.8 25.6 4.4 56.4 9.5 68.5 11.5 12.1 1.9 28.1 4.4 35.5 5.5 7.4 1.1 27.9 4 45.5 6.6 17.6 2.5 36 5.3 36.5 5.5 0.5 0.2-325.9-0.1-1440 0v-199.5c0-109.7 0.1-199.5 0.2-199.5z"/>
	</g>
</svg>