<?xml version="1.0" encoding="UTF-8"?>
<svg id="Calque_1" data-name="Calque 1" xmlns="http://www.w3.org/2000/svg" viewBox="0 0 375.56 261.3">
  <path d="m111.56,103.7c.1,92.9.2,103.6,1.6,101.8.8-1.1,12.8-24.8,26.7-52.6l25.2-50.7,5,.7c5.9.7,25.5.8,34,.1l5.9-.5,26,51.7c14.3,28.5,26.4,51.8,26.8,51.8s.8-46.4.8-103V0h-7l-.2,89.4-.3,89.4-34-67.4c-18.6-37.1-34.2-67.4-34.5-67.4-.4,0-15.9,30.3-34.6,67.4l-33.9,67.4-.3-89.4-.2-89.4h-7v103.7Zm85.1-26.6c4.9,10,8.9,18.2,8.7,18.4-1.2,1-18.7,2-24.8,1.4-4.1-.4-8.3-.8-9.2-.8-1-.1-1.8-.6-1.8-1.1,0-1,17.2-36,17.7-36,.2,0,4.4,8.1,9.4,18.1Z"/>
</svg>