<?xml version="1.0" encoding="UTF-8"?>
<svg id="Calque_1" data-name="Calque 1" xmlns="http://www.w3.org/2000/svg" viewBox="0 0 341.04 262.13">
  <defs>
    <style>
      .cls-1, .cls-2, .cls-3, .cls-4 {
        isolation: isolate;
      }

      .cls-1, .cls-3, .cls-4 {
        font-family: ArialMT, Arial;
        font-size: 42.68px;
      }

      .cls-3 {
        letter-spacing: -.06em;
      }

      .cls-4 {
        letter-spacing: .02em;
      }
    </style>
  </defs>
  <path d="m92.26,103.7c.1,92.9.2,103.6,1.6,101.8.8-1.1,12.8-24.8,26.7-52.6l25.2-50.7,5,.7c5.9.7,25.5.8,34,.1l5.9-.5,26,51.7c14.3,28.5,26.4,51.8,26.8,51.8s.8-46.4.8-103V0h-7l-.2,89.4-.3,89.4-34-67.4c-18.6-37.1-34.2-67.4-34.5-67.4-.4,0-15.9,30.3-34.6,67.4l-33.9,67.4-.3-89.4-.2-89.4h-7v103.7h0Zm85.1-26.6c4.9,10,8.9,18.2,8.7,18.4-1.2,1-18.7,2-24.8,1.4-4.1-.4-8.3-.8-9.2-.8-1-.1-1.8-.6-1.8-1.1,0-1,17.2-36,17.7-36,.2,0,4.4,8.1,9.4,18.1h0Z"/>
  <g class="cls-2">
    <text class="cls-1" transform="translate(0 248.02) scale(1.23 1)"><tspan x="0" y="0">W</tspan></text>
    <text class="cls-1" transform="translate(46.45 248.02) scale(1.23 1)"><tspan x="0" y="0">I</tspan></text>
    <text class="cls-4" transform="translate(59.2 248.02) scale(1.23 1)"><tspan x="0" y="0">S</tspan></text>
    <text class="cls-1" transform="translate(91.6 248.02) scale(1.23 1)"><tspan x="0" y="0">S</tspan></text>
    <text class="cls-1" transform="translate(125.73 248.02) scale(1.23 1)"><tspan x="0" y="0">EM </tspan></text>
    <text class="cls-1" transform="translate(223.59 247.76) scale(1.23 1)"><tspan x="0" y="0">B</tspan></text>
    <text class="cls-3" transform="translate(255.93 247.76) scale(1.23 1)"><tspan x="0" y="0">A</tspan></text>
    <text class="cls-1" transform="translate(291.16 248.28) scale(1.23 1)"><tspan x="0" y="0">D</tspan></text>
    <text class="cls-1" transform="translate(326.4 247.76) scale(1.23 1)"><tspan x="0" y="0">I</tspan></text>
  </g>
</svg>